# xmcd CD database file
#
# Track frame offsets:
#	150
#	21469
#	43825
#	69215
#	88121
#
# Disc length: 1281 seconds
#
# Revision: 0
# Processed by: cddbd v1.5.1PL2 Copyright (c) Steve Scherf et al.
# Submitted via: CDex 1.51
#
DISCID=3d04ff05
DTITLE=Mountains In The Sky - Accipio
DYEAR=2006
DGENRE=New Age
TTITLE0=Pt 1. Wait
TTITLE1=Pt 2. Stealing Through
TTITLE2=Pt 3. Coalesced
TTITLE3=Pt 4. Rupture
TTITLE4=Pt 5. Again
EXTD=YEAR: 2006
EXTT0=
EXTT1=
EXTT2=
EXTT3=
EXTT4=
PLAYORDER=
